<?xml version="1.0" standalone="no"?><!DOCTYPE svg PUBLIC "-//W3C//DTD SVG 1.1//EN" "http://www.w3.org/Graphics/SVG/1.1/DTD/svg11.dtd"><svg t="1740372629328" class="icon" viewBox="0 0 1024 1024" version="1.1" xmlns="http://www.w3.org/2000/svg" p-id="1864" xmlns:xlink="http://www.w3.org/1999/xlink" width="200" height="200"><path d="M396.8 550.4a76.8 76.8 0 0 1 76.8 76.8v243.2a76.8 76.8 0 0 1-76.8 76.8H153.6a76.8 76.8 0 0 1-76.8-76.8V627.2a76.8 76.8 0 0 1 76.8-76.8h243.2z m473.6 0a76.8 76.8 0 0 1 76.8 76.8v243.2a76.8 76.8 0 0 1-76.8 76.8H627.2a76.8 76.8 0 0 1-76.8-76.8V627.2a76.8 76.8 0 0 1 76.8-76.8h243.2zM396.8 76.8a76.8 76.8 0 0 1 76.8 76.8v243.2a76.8 76.8 0 0 1-76.8 76.8H153.6a76.8 76.8 0 0 1-76.8-76.8V153.6a76.8 76.8 0 0 1 76.8-76.8h243.2z" fill="#6B57FE" p-id="1865"></path><path d="M809.5104 59.52l171.968 171.9808a76.8 76.8 0 0 1 0 108.608L809.5104 512.0768a76.8 76.8 0 0 1-108.6208 0L528.9216 340.1088a76.8 76.8 0 0 1 0-108.608L700.8896 59.52a76.8 76.8 0 0 1 108.6208 0z" fill="#FFBA00" p-id="1866"></path></svg>